<svg width="50" height="50" viewBox="0 0 50 50" fill="none" xmlns="http://www.w3.org/2000/svg">
<g id="003-house">
<path id="Path_92" fill-rule="evenodd" clip-rule="evenodd" d="M49.94 3.33714V9.78571L48.3286 9.67V24.3729C49.2916 24.712 49.9369 25.6205 49.94 26.6414V28.2486C49.9383 29.2702 49.2934 30.1801 48.33 30.52V50.0029H0V48.3914H4.04714C3.68181 47.9163 3.42794 47.3651 3.30429 46.7786H2.41714C1.08284 46.777 0.0015744 45.6957 0 44.3614V41.14C0.00266404 40.1189 0.648157 39.2102 1.61143 38.8714V30.52C0.64744 30.1805 0.00188257 29.2706 0 28.2486V26.6414C0.00309063 25.6205 0.648427 24.712 1.61143 24.3729V19.3914H4.83286V6.56429L3.22143 6.44857V0L49.94 3.33714ZM48.33 4.83571L4.83286 1.73V4.94857L48.33 8.05429V4.83571ZM6.44429 6.67714L25.7757 8.05857V24.2243H22.5543V19.3914H6.44429V6.67714ZM8.05429 24.2243V21.0029H6.44429V24.2243H8.05429ZM9.66571 21.0029H11.2771V24.2243H9.66571V21.0029ZM14.4986 21.0029H12.8871V24.2243H14.4986V21.0029ZM16.1086 21.0029H17.7143V24.2243H16.11L16.1086 21.0029ZM20.9429 21.0029H19.33L19.3314 24.2243H20.9429V21.0029ZM3.22 21.0029H4.83286V24.2243H3.22143L3.22 21.0029ZM14.4986 46.7786H11.1957C11.0715 47.3654 10.8166 47.9167 10.45 48.3914H14.4986V46.7786ZM14.4986 38.73H10.7486C11.8256 37.865 13.126 37.3236 14.4986 37.1686V38.73ZM27.3871 30.67H16.11V48.3914H27.3871V30.67ZM14.4986 32.4157C10.3863 32.9852 6.71146 35.2796 4.39429 38.7243H3.22143V30.6686H14.4986V32.4157ZM1.61143 41.14V44.3586C1.61143 44.8036 1.97216 45.1643 2.41714 45.1643H3.30286C3.68432 43.2878 5.3344 41.9394 7.24929 41.9394C9.16418 41.9394 10.8143 43.2878 11.1957 45.1643H14.4914V40.3371L7.24286 40.33L8.20857 39.0443C9.71906 37.047 12.0007 35.7781 14.4943 35.5486V34.0614C10.7879 34.6332 7.51125 36.7832 5.51143 39.9557L5.27429 40.3343H2.41714C1.97216 40.3343 1.61143 40.695 1.61143 41.14ZM4.83286 45.9729C4.83365 44.6381 5.91619 43.5566 7.25095 43.5571C8.58572 43.5577 9.66741 44.64 9.66714 45.9748C9.66688 47.3095 8.58477 48.3914 7.25 48.3914C5.91514 48.3899 4.83364 47.3077 4.83286 45.9729ZM38.6629 48.3914H43.4971L43.4957 35.5014H38.6629V48.3914ZM37.0529 48.3914H32.22V35.5014H37.0529V48.3914ZM45.1071 33.89V48.3914H46.7143V30.6771H29V48.3914H30.6086V33.89H45.1071ZM48.3286 28.2486C48.3286 28.6936 47.9678 29.0543 47.5229 29.0543H2.41714C1.97216 29.0543 1.61143 28.6936 1.61143 28.2486V26.6414C1.61143 26.1964 1.97216 25.8357 2.41714 25.8357H47.5243C47.9693 25.8357 48.33 26.1964 48.33 26.6414L48.3286 28.2486ZM27.3871 24.2243H46.7143V9.55571L27.3871 8.17429V24.2243Z" fill="#DC2D32"/>
<path id="Path_93" fill-rule="evenodd" clip-rule="evenodd" d="M35.4414 11.3372V22.6143H28.9971V11.3372H35.4414ZM33.8299 12.9486H30.6085V21.0029H33.8299V12.9486Z" fill="#DC2D32"/>
<path id="Path_94" fill-rule="evenodd" clip-rule="evenodd" d="M38.6631 11.3372H45.1074V22.6143H38.6631V11.3372ZM40.2745 21.0029H43.4959V12.9486H40.2745V21.0029Z" fill="#DC2D32"/>
<path id="Path_95" fill-rule="evenodd" clip-rule="evenodd" d="M14.4985 14.5586H8.0542V9.72571H14.4985V14.5586ZM12.8871 11.3371H9.66563V12.9486H12.8871V11.3371Z" fill="#DC2D32"/>
<path id="Path_96" fill-rule="evenodd" clip-rule="evenodd" d="M17.7212 9.72571H24.1655V14.5586H17.7212V9.72571ZM19.3326 12.9471H22.554V11.3371H19.3326V12.9471Z" fill="#DC2D32"/>
<path id="Path_97" fill-rule="evenodd" clip-rule="evenodd" d="M17.7212 38.7229V32.2786H25.7755V38.7229H17.7212ZM19.3326 37.1114H24.1655V33.89H19.3326V37.1114Z" fill="#DC2D32"/>
</g>
</svg>
