<svg width="50" height="50" viewBox="0 0 50 50" fill="none" xmlns="http://www.w3.org/2000/svg">
<g id="chandelier">
<path id="Shape" fill-rule="evenodd" clip-rule="evenodd" d="M39.1667 26.6667C39.5037 26.6667 39.8075 26.8697 39.9365 27.1811C40.0655 27.4925 39.9942 27.8509 39.756 28.0892L36.4226 31.4226C36.2663 31.5789 36.0544 31.6667 35.8333 31.6667V38.3333C35.8333 39.714 34.714 40.8333 33.3333 40.8333C31.9526 40.8333 30.8333 39.714 30.8333 38.3333V33.3333C30.8333 32.8731 30.4602 32.5 30 32.5C29.5398 32.5 29.1667 32.8731 29.1667 33.3333V37.3974C29.1692 39.5554 27.8449 41.493 25.8333 42.2745V43.9098C26.4307 44.7969 27.5 46.5219 27.5 47.5C27.5 48.8807 26.3807 50 25 50C23.6193 50 22.5 48.8807 22.5 47.5C22.5 46.5219 23.5693 44.7969 24.1667 43.9098V42.2745C22.1551 41.493 20.8308 39.5554 20.8333 37.3974V33.3333C20.8333 32.8731 20.4602 32.5 20 32.5C19.5398 32.5 19.1667 32.8731 19.1667 33.3333V38.3333C19.1667 39.714 18.0474 40.8333 16.6667 40.8333C15.286 40.8333 14.1667 39.714 14.1667 38.3333V31.6667C13.9456 31.6667 13.7337 31.5789 13.5774 31.4226L10.244 28.0892C10.0057 27.8509 9.93448 27.4925 10.0635 27.1811C10.1925 26.8697 10.4963 26.6667 10.8333 26.6667H12.3609C12.0901 24.1145 12.7947 21.5542 14.3333 19.5C14.4907 19.2902 14.7377 19.1667 15 19.1667C15.2623 19.1667 15.5093 19.2902 15.6667 19.5C17.2053 21.5542 17.9099 24.1145 17.6391 26.6667H19.1667C19.5037 26.6667 19.8075 26.8697 19.9365 27.1811C20.0655 27.4925 19.9942 27.8509 19.756 28.0892L16.4226 31.4226C16.2663 31.5789 16.0544 31.6667 15.8333 31.6667V38.3333C15.8333 38.7936 16.2064 39.1667 16.6667 39.1667C17.1269 39.1667 17.5 38.7936 17.5 38.3333V33.3333C17.5 31.9526 18.6193 30.8333 20 30.8333C21.3807 30.8333 22.5 31.9526 22.5 33.3333V35.8333H24.1667V20.8333H22.5C22.1843 20.8334 21.8958 20.655 21.7547 20.3727L20.088 17.0393C19.9588 16.781 19.9726 16.4742 20.1244 16.2285C20.2763 15.9828 20.5445 15.8333 20.8333 15.8333V15C20.8307 12.6999 18.9668 10.8359 16.6667 10.8333C15.286 10.8333 14.1667 11.9526 14.1667 13.3333C14.1667 14.714 15.286 15.8333 16.6667 15.8333C17.1269 15.8333 17.5 15.4602 17.5 15C17.5 14.5398 17.1269 14.1667 16.6667 14.1667V12.5C18.0474 12.5 19.1667 13.6193 19.1667 15C19.1667 16.3807 18.0474 17.5 16.6667 17.5C14.3655 17.5 12.5 15.6345 12.5 13.3333C12.5 11.0321 14.3655 9.16667 16.6667 9.16667C19.8868 9.1703 22.4964 11.7798 22.5 15V15.8333H24.1667V11.5233C23.1678 11.1703 22.5 10.226 22.5 9.16667C22.5 8.1073 23.1678 7.16299 24.1667 6.81002V5C21.8666 4.99739 20.0026 3.13344 20 0.833333C20 0.373098 20.3731 4.60228e-06 20.8333 0H29.1667C29.6269 4.60228e-06 30 0.373098 30 0.833333C29.9974 3.13344 28.1334 4.99739 25.8333 5V6.81002C26.8322 7.16299 27.5 8.1073 27.5 9.16667C27.5 10.226 26.8322 11.1703 25.8333 11.5233V15.8333H27.5V15C27.5036 11.7798 30.1132 9.1703 33.3333 9.16667C35.6345 9.16667 37.5 11.0321 37.5 13.3333C37.5 15.6345 35.6345 17.5 33.3333 17.5C31.9526 17.5 30.8333 16.3807 30.8333 15C30.8333 13.6193 31.9526 12.5 33.3333 12.5V14.1667C32.8731 14.1667 32.5 14.5398 32.5 15C32.5 15.4602 32.8731 15.8333 33.3333 15.8333C34.714 15.8333 35.8333 14.714 35.8333 13.3333C35.8333 11.9526 34.714 10.8333 33.3333 10.8333C31.0332 10.8359 29.1693 12.6999 29.1667 15V15.8333C29.4555 15.8333 29.7237 15.9828 29.8756 16.2285C30.0274 16.4742 30.0412 16.781 29.912 17.0393L28.2453 20.3727C28.1042 20.655 27.8156 20.8334 27.5 20.8333H25.8333V35.8333H27.5V33.3333C27.5 31.9526 28.6193 30.8333 30 30.8333C31.3807 30.8333 32.5 31.9526 32.5 33.3333V38.3333C32.5 38.7936 32.8731 39.1667 33.3333 39.1667C33.7936 39.1667 34.1667 38.7936 34.1667 38.3333V31.6667C33.9456 31.6667 33.7337 31.5789 33.5774 31.4226L30.244 28.0892C30.0057 27.8509 29.9345 27.4925 30.0635 27.1811C30.1925 26.8697 30.4963 26.6667 30.8333 26.6667H32.3609C32.0901 24.1145 32.7947 21.5542 34.3333 19.5C34.4907 19.2902 34.7377 19.1667 35 19.1667C35.2623 19.1667 35.5093 19.2902 35.6667 19.5C37.2053 21.5542 37.9099 24.1145 37.6391 26.6667H39.1667ZM28.1905 1.66667H21.8095C22.1637 2.66476 23.1076 3.3321 24.1667 3.33333H25.8333C26.8924 3.3321 27.8363 2.66476 28.1905 1.66667ZM25 8.33333C25.4602 8.33333 25.8333 8.70643 25.8333 9.16667C25.8333 9.6269 25.4602 10 25 10C24.5398 10 24.1667 9.6269 24.1667 9.16667C24.1672 8.70665 24.54 8.33386 25 8.33333ZM27.8183 17.5H22.1817L23.015 19.1667H26.985L27.8183 17.5ZM15 21.539C15.8502 23.1051 16.1867 24.8988 15.962 26.6667H14.038C13.8133 24.8988 14.1498 23.1051 15 21.539ZM17.1548 28.3333H12.8451L14.5118 30H15.4882L17.1548 28.3333ZM25 48.3333C24.5403 48.3329 24.1676 47.9607 24.1667 47.501C24.1735 47.2462 24.5201 46.5202 25 45.7115C25.4797 46.5198 25.8262 47.2456 25.8333 47.5007C25.8324 47.9604 25.4598 48.3328 25 48.3333ZM22.5014 37.5C22.5434 39.0212 23.5474 40.3477 25 40.8014C26.4526 40.3477 27.4566 39.0212 27.4986 37.5H22.5014ZM35 21.539C35.8502 23.1051 36.1867 24.8988 35.962 26.6667H34.038C33.8133 24.8988 34.1498 23.1051 35 21.539ZM32.8452 28.3333L34.5118 30H35.4882L37.1548 28.3333H32.8452Z" fill="#DC2D32"/>
<path id="Shape_2" fill-rule="evenodd" clip-rule="evenodd" d="M10.8333 39.1674V40C10.8333 41.3807 9.71404 42.5 8.33333 42.5C6.95262 42.5 5.83333 41.3807 5.83333 40V35C6.05436 35 6.26633 34.9122 6.42262 34.7559L9.75596 31.4226C9.99424 31.1842 10.0655 30.8258 9.93652 30.5144C9.80754 30.2031 9.5037 30 9.16666 30H7.63906C7.90991 27.4478 7.20531 24.8876 5.66671 22.8334C5.50932 22.6235 5.26231 22.5 5 22.5C4.73769 22.5 4.49068 22.6235 4.33329 22.8334C2.79467 24.8876 2.09007 27.4478 2.36093 30H0.833329C0.496294 30 0.192455 30.2031 0.0634695 30.5144C-0.0655164 30.8258 0.00574657 31.1842 0.244034 31.4226L3.57737 34.7559C3.73366 34.9122 3.94563 35 4.16666 35V40C4.16666 42.3012 6.03214 44.1667 8.33333 44.1667C10.6345 44.1667 12.5 42.3012 12.5 40V39.1674C12.4986 38.3479 12.7401 37.5464 13.194 36.8641L11.806 35.9412C11.1701 36.8969 10.8317 38.0195 10.8333 39.1674ZM5 24.8723C5.85018 26.4384 6.18671 28.2322 5.96201 30H4.03798C3.81329 28.2322 4.14982 26.4384 5 24.8723ZM7.15484 31.6667H2.84515L4.51182 33.3333H5.48817L7.15484 31.6667Z" fill="#DC2D32"/>
<path id="Shape_3" fill-rule="evenodd" clip-rule="evenodd" d="M49.9366 30.5144C49.8077 30.203 49.5038 30 49.1668 30H47.6392C47.91 27.4478 47.2054 24.8876 45.6668 22.8334C45.5094 22.6235 45.2624 22.5 45.0001 22.5C44.7378 22.5 44.4908 22.6235 44.3334 22.8334C42.7948 24.8876 42.0902 27.4478 42.3611 30H40.8335C40.4964 30 40.1926 30.2031 40.0636 30.5144C39.9346 30.8258 40.0059 31.1842 40.2442 31.4226L43.5775 34.7559C43.7338 34.9122 43.9458 35 44.1668 35V40C44.1668 41.3807 43.0475 42.5 41.6668 42.5C40.2861 42.5 39.1668 41.3807 39.1668 40V39.1674C39.1685 38.0195 38.83 36.8969 38.1941 35.9412L36.8062 36.8641C37.26 37.5464 37.5015 38.3479 37.5001 39.1674V40C37.5001 42.3012 39.3656 44.1667 41.6668 44.1667C43.968 44.1667 45.8335 42.3012 45.8335 40V35C46.0545 35 46.2665 34.9122 46.4228 34.7559L49.7561 31.4226C49.9944 31.1842 50.0656 30.8258 49.9366 30.5144ZM45.0001 24.8723C45.8503 26.4384 46.1868 28.2322 45.9621 30H44.0381C43.8134 28.2322 44.1499 26.4384 45.0001 24.8723ZM44.5119 33.3333H45.4883L47.155 31.6667H42.8453L44.5119 33.3333Z" fill="#DC2D32"/>
</g>
</svg>
